<svg width="27" height="23" viewBox="0 0 27 23" fill="none" xmlns="http://www.w3.org/2000/svg">
<path d="M7.51578 7.48601L4.59717 10.315L12.6267 18.098L27 4.16601L24.0824 1.33701L12.6267 12.439L7.51578 7.48601Z" fill="#6A6A6A"/>
<path d="M21.6652 20C21.6652 20.542 21.1927 21 20.6335 21H3.09503C2.53586 21 2.06335 20.542 2.06335 20V3C2.06335 2.458 2.53586 2 3.09503 2H20.5386L22.1738 0.415C21.7075 0.146542 21.1759 0.00329969 20.6335 0H3.09503C1.39276 0 0 1.35 0 3V20C0 21.65 1.39276 23 3.09503 23H20.6335C22.3358 23 23.7286 21.65 23.7286 20V10.171L21.6652 12.171V20Z" fill="#6A6A6A"/>
</svg>
